<?xml version="1.0" encoding="UTF-8"?>
<svg width="100px" height="60px" viewBox="0 0 100 60" version="1.1" xmlns="http://www.w3.org/2000/svg" xmlns:xlink="http://www.w3.org/1999/xlink">
    <title>logo</title>
    <g id="v1" stroke="none" stroke-width="1" fill="none" fill-rule="evenodd">
        <g id="A01" transform="translate(-670.000000, -305.000000)" fill-rule="nonzero">
            <g id="Group-3" transform="translate(608.000000, 305.000000)">
                <g id="logo" transform="translate(62.000000, 0.000000)">
                    <polygon id="Path" fill="#51575C" points="8.43497527 44.8547421 5.08694582 53.5634349 1.72325045 44.8547421 0 44.8547421 4.39540765 55.5936546 4.41107356 55.6298278 5.76729405 55.6298278 10.1268939 44.9338709 10.1582257 44.8547421"></polygon>
                    <path d="M12.7565293,45.91959 C12.755364,46.1316387 12.6702357,46.3343956 12.5201346,46.4826304 C12.3700335,46.6308652 12.1674471,46.7122456 11.9575678,46.7086175 C11.533269,46.6820809 11.2038409,46.3245505 11.2080143,45.8951222 C11.2121877,45.465694 11.5485009,45.1147662 11.9732337,45.0966502 C12.185926,45.0983717 12.3889456,45.1866605 12.5363692,45.3415456 C12.6837928,45.4964306 12.7631642,45.7048251 12.7565293,45.91959 L12.7565293,45.91959 Z M12.5752523,55.627567 L11.3354072,55.627567 L11.3354072,48.0425035 L12.5730143,48.0425035 L12.5752523,55.627567 Z" id="Shape" fill="#50565B"></path>
                    <path d="M19.5264418,44.6196164 L19.5264418,48.6890991 C19.2991961,48.4569083 19.0342689,48.2657436 18.7431462,48.1238931 C18.3693855,47.9566039 17.9634332,47.8755117 17.5547747,47.8865067 C16.62163,47.8655787 15.733347,48.2903732 15.15789,49.0327443 C14.8686449,49.4079953 14.6508558,49.8342193 14.5155876,50.2897622 C14.3637282,50.7954172 14.288279,51.3213286 14.2917888,51.8497306 C14.2839679,52.4109022 14.3509631,52.9705835 14.4909697,53.5136968 C14.6039856,53.9500438 14.7984429,54.360576 15.0638945,54.7232375 C15.3023322,55.0418482 15.613228,55.2977555 15.9702795,55.4693093 C16.3406545,55.641342 16.7443217,55.7278421 17.151937,55.7225216 C17.6483055,55.7336378 18.1389439,55.6136231 18.5752971,55.3743547 C18.9544706,55.1546195 19.2948149,54.8726894 19.5823915,54.5401108 L19.6025334,55.6230453 L19.6584831,55.6230453 L20.8804243,55.6230453 L20.936374,55.6230453 L20.936374,44.6128339 L19.5264418,44.6196164 Z M19.5264418,49.8737707 L19.5264418,53.4616979 C19.2937881,53.7828603 19.0038561,54.0573492 18.6715306,54.2710728 C18.3424985,54.467185 17.9658103,54.5666244 17.5838686,54.5581974 C17.3152209,54.5628442 17.0485286,54.5112708 16.8005729,54.4067222 C16.5716736,54.3040414 16.3744947,54.140783 16.2298861,53.93421 C16.0585419,53.6805836 15.937683,53.3957021 15.8740461,53.0954444 C15.7855019,52.6879367 15.7441944,52.2714054 15.7509567,51.8542522 C15.7509567,50.9499228 15.9344717,50.2445458 16.2970257,49.7584687 C16.6643538,49.273808 17.2445346,49.0031697 17.8479511,49.0350051 C18.1659039,49.0312576 18.4809971,49.0959983 18.77224,49.2249143 C19.0731922,49.3743988 19.3324334,49.5974298 19.5264418,49.8737707 L19.5264418,49.8737707 Z" id="Shape" fill="#51575C"></path>
                    <polygon id="Path" fill="#50565B" points="28.0061768 48.0176344 29.4474409 48.0176344 24.6715753 60 23.2303113 60 24.8976121 55.8536493 22.0486539 48.0176344 23.4541101 48.0176344 25.6070541 54.0155997"></polygon>
                    <path d="M36.7209006,50.2015901 C36.5695863,49.7441837 36.326556,49.3231992 36.0069825,48.9649196 C35.6915766,48.6203881 35.3049517,48.350231 34.8745608,48.1736313 C33.915514,47.8030976 32.8548461,47.8030976 31.8957993,48.1736313 C31.4643575,48.3506925 31.0763645,48.6207382 30.7589016,48.9649196 C30.4365331,49.3226949 30.1904757,49.7436446 30.0360316,50.2015901 C29.7001799,51.2510011 29.7001799,52.3806354 30.0360316,53.4300463 C30.1910862,53.886359 30.4371087,54.3057102 30.7589016,54.6621953 C31.0759568,55.0057495 31.4641523,55.2743922 31.8957993,55.4489619 C32.8557237,55.814664 33.9146364,55.814664 34.8745608,55.4489619 C35.3050232,55.2746045 35.6918014,55.0058846 36.0069825,54.6621953 C36.3259257,54.3051681 36.5689146,53.8857942 36.7209006,53.4300463 C37.0521048,52.3799004 37.0521048,51.251736 36.7209006,50.2015901 L36.7209006,50.2015901 Z M33.3840611,49.0440484 C34.0935031,49.0440484 34.6306201,49.2882173 34.9797462,49.767512 C35.3288723,50.2468066 35.5101493,50.9454011 35.5101493,51.8203399 C35.5101493,52.6952786 35.3311103,53.3780474 34.9797462,53.8550812 C34.6283822,54.332115 34.0845512,54.576284 33.3840611,54.576284 C33.0602557,54.583344 32.7387915,54.5193207 32.4418683,54.3886356 C32.1784046,54.2686595 31.9479296,54.0855026 31.770472,53.8550812 C31.5806382,53.5974482 31.4443707,53.3036755 31.3698722,52.9914466 C31.1911248,52.2158042 31.1911248,51.4090498 31.3698722,50.6334074 C31.4445679,50.3191693 31.5807772,50.0232158 31.770472,49.7629903 C31.947069,49.5305903 32.1776769,49.3457746 32.4418683,49.2249143 C32.7399861,49.0996515 33.0614045,49.0410362 33.3840611,49.0530917 L33.3840611,49.0440484 Z" id="Shape" fill="#51575C"></path>
                    <path d="M46.1025446,53.2604846 C46.1025446,53.2604846 45.4781461,53.7601266 45.299107,53.8776894 C45.1167674,53.9975598 44.9215617,54.0961586 44.7172303,54.1715965 C44.4997782,54.251722 44.2748214,54.3092925 44.045834,54.3434191 C43.7692382,54.3818308 43.4902526,54.3999648 43.2110646,54.3976789 C42.7261282,54.4016868 42.2452735,54.3079164 41.7966564,54.1218584 C41.3649732,53.9412123 40.977683,53.6672657 40.6619967,53.319266 C40.3284401,52.9424124 40.0714261,52.5030275 39.9055569,52.0260748 C39.7125353,51.4644285 39.6186065,50.8729135 39.6280465,50.2784581 C39.6201153,49.6937096 39.7140496,49.1121086 39.9055569,48.5602321 C40.0733594,48.0788387 40.3368765,47.6372136 40.6799006,47.2625193 C41.0133299,46.9078 41.4176614,46.628816 41.8660341,46.4441011 C42.3489498,46.2483885 42.8653354,46.1508183 43.3856276,46.1569765 C43.6594934,46.1542992 43.932997,46.1777653 44.2024931,46.2270621 C44.4135125,46.2667855 44.6208754,46.3242598 44.8224157,46.3988847 C44.9814231,46.4609463 45.1349073,46.5365806 45.2812031,46.624967 C45.4110064,46.701835 45.5251438,46.7764422 45.6213773,46.8510494 L45.8765078,47.0251328 C45.9570754,47.0771318 46.0824027,47.1743472 46.0824027,47.1743472 L46.9507419,46.2112363 L46.9149341,46.1773239 C45.9701572,45.26186 44.6983607,44.7724224 43.3901036,44.8208297 C42.650713,44.812648 41.916692,44.9485149 41.2282076,45.2209955 C40.5948947,45.4755555 40.0209823,45.860528 39.5430029,46.3514074 C39.0663001,46.8486111 38.6947179,47.4385941 38.450865,48.0854591 C38.1867571,48.7940915 38.0554658,49.5461783 38.0636931,50.3033272 C38.0559693,51.0575509 38.178663,51.8073453 38.4262471,52.5189344 C38.6494596,53.1593108 38.9971994,53.748122 39.4490075,54.2507253 C39.8938379,54.738521 40.4372594,55.1240312 41.0424546,55.3811372 C41.7017297,55.6546305 42.4089082,55.7907422 43.1215451,55.781303 C43.8891061,55.8009408 44.6520112,55.6552804 45.3595327,55.3540073 C45.9665557,55.0780095 46.5065641,54.6713782 46.9417899,54.1625532 L46.9753598,54.1241192 L46.1025446,53.2604846 Z" id="Path" fill="#51575C"></path>
                    <path d="M54.8955979,50.2015901 C54.7442836,49.7441837 54.5012533,49.3231992 54.1816798,48.9649196 C53.866274,48.6203881 53.479649,48.350231 53.0492581,48.1736313 C52.0902113,47.8030976 51.0295434,47.8030976 50.0704966,48.1736313 C49.6390549,48.3506925 49.2510618,48.6207382 48.9335989,48.9649196 C48.6112304,49.3226949 48.365173,49.7436446 48.2107289,50.2015901 C47.8748772,51.2510011 47.8748772,52.3806354 48.2107289,53.4300463 C48.3657835,53.886359 48.611806,54.3057102 48.9335989,54.6621953 C49.2506541,55.0057495 49.6388497,55.2743922 50.0704966,55.4489619 C51.030421,55.814664 52.0893337,55.814664 53.0492581,55.4489619 C53.4797205,55.2746045 53.8664987,55.0058846 54.1816798,54.6621953 C54.500623,54.3051681 54.7436119,53.8857942 54.8955979,53.4300463 C55.2268021,52.3799004 55.2268021,51.251736 54.8955979,50.2015901 L54.8955979,50.2015901 Z M51.5587584,49.0440484 C52.2682004,49.0440484 52.8053175,49.2882173 53.1544435,49.767512 C53.5035696,50.2468066 53.6848466,50.9454011 53.6848466,51.8203399 C53.6848466,52.6952786 53.5058076,53.3780474 53.1544435,53.8550812 C52.8030795,54.332115 52.2592485,54.576284 51.5587584,54.576284 C51.234953,54.583344 50.9134888,54.5193207 50.6165656,54.3886356 C50.3531019,54.2686595 50.1226269,54.0855026 49.9451693,53.8550812 C49.7553355,53.5974482 49.619068,53.3036755 49.5445695,52.9914466 C49.3658221,52.2158042 49.3658221,51.4090498 49.5445695,50.6334074 C49.6192652,50.3191693 49.7554745,50.0232158 49.9451693,49.7629903 C50.1217663,49.5305903 50.3523742,49.3457746 50.6165656,49.2249143 C50.9146835,49.0996515 51.2361018,49.0410362 51.5587584,49.0530917 L51.5587584,49.0440484 Z" id="Shape" fill="#51575C"></path>
                    <path d="M62.7643623,49.6228192 C62.6655372,49.287307 62.5011668,48.9751991 62.280957,48.7049248 C62.0646632,48.4475015 61.7918425,48.2446689 61.4842334,48.112589 C61.1373138,47.9685412 60.7648776,47.8977565 60.3898574,47.9045932 C59.899682,47.8945684 59.415108,48.0113057 58.9821632,48.2437168 C58.6059553,48.4550908 58.2640478,48.7234782 57.9683549,49.0395267 L57.9549269,48.9400505 L57.9549269,48.0221561 L56.6434662,48.0221561 L56.6434662,55.627567 L58.0578744,55.627567 L58.0578744,50.0772448 C58.3140834,49.7840887 58.6165722,49.5358087 58.9530694,49.3424771 C59.2753313,49.1613157 59.6383671,49.0671001 60.0071616,49.0689174 C60.4333854,49.035677 60.8510381,49.2024415 61.1395833,49.5210822 C61.4078033,49.8923009 61.5392099,50.346521 61.5110892,50.80523 L61.5110892,55.627567 L62.9254974,55.627567 L62.9254974,50.8007084 C62.930321,50.4021525 62.8760064,50.0051156 62.7643623,49.6228192 L62.7643623,49.6228192 Z" id="Path" fill="#51575C"></path>
                    <path d="M70.9061612,49.6228192 C70.807336,49.287307 70.6429657,48.9751991 70.4227559,48.7049248 C70.2064621,48.4475015 69.9336414,48.2446689 69.6260323,48.112589 C69.2791127,47.9685412 68.9066764,47.8977565 68.5316563,47.9045932 C68.0414809,47.8945684 67.5569069,48.0113057 67.1239621,48.2437168 C66.7477542,48.4550908 66.4058467,48.7234782 66.1101537,49.0395267 L66.0967258,48.9400505 L66.0967258,48.0221561 L64.7830271,48.0221561 L64.7830271,55.627567 L66.1974353,55.627567 L66.1974353,50.0772448 C66.4536443,49.7840887 66.7561331,49.5358087 67.0926303,49.3424771 C67.4148922,49.1613157 67.777928,49.0671001 68.1467225,49.0689174 C68.5729463,49.035677 68.990599,49.2024415 69.2791442,49.5210822 C69.5473643,49.8923009 69.6787708,50.346521 69.6506501,50.80523 L69.6506501,55.627567 L71.0650583,55.627567 L71.0650583,50.8007084 C71.0706084,50.4022663 71.0170484,50.0052318 70.9061612,49.6228192 L70.9061612,49.6228192 Z" id="Path" fill="#51575C"></path>
                    <path d="M79.0322942,51.8587739 C79.0322942,51.8587739 79.0501981,51.5332153 79.0501981,51.3116545 C79.0610969,50.8204955 78.9853139,50.3313012 78.8263993,49.8669882 C78.6847156,49.4684227 78.4621246,49.1041767 78.1729069,48.7976186 C77.892079,48.5073963 77.5533649,48.2808241 77.1792404,48.1329364 C76.7801208,47.9783798 76.3556135,47.9016645 75.9282054,47.9068541 C75.4228064,47.899341 74.9213651,47.9978811 74.4556095,48.1962395 C74.0303105,48.3781866 73.6486938,48.6503572 73.3366157,48.9943103 C73.0281657,49.3430825 72.7915595,49.7504165 72.6406016,50.1925468 C72.477274,50.6694675 72.395538,51.1710038 72.3988989,51.6756472 C72.3893955,52.2647592 72.4794613,52.8511908 72.6652194,53.4096989 C72.8244695,53.8816799 73.0790056,54.3151112 73.4127073,54.6825427 C73.7311962,55.0243394 74.1200535,55.2913679 74.551843,55.4647877 C75.0094946,55.6456539 75.497226,55.7362139 75.988631,55.7315649 C76.2638672,55.7313828 76.5386058,55.7079392 76.8099725,55.6614793 C77.0835156,55.6149527 77.3523969,55.5438308 77.61341,55.4489619 C77.8699809,55.3554772 78.1154371,55.2333925 78.345232,55.0849693 C78.5680798,54.941467 78.7674167,54.7637419 78.9360607,54.5581974 L78.9651545,54.524285 L78.2445225,53.7872565 L77.9491082,53.9839482 C77.8124325,54.0727437 77.6712458,54.1542451 77.5261285,54.2281171 C77.3323604,54.3259052 77.1310201,54.4075656 76.9241098,54.4722861 C76.655423,54.5524523 76.3761671,54.5905747 76.0960544,54.5853273 C75.7777872,54.5901405 75.4616163,54.5325569 75.1650516,54.4157655 C74.89154,54.3040085 74.6477865,54.1290073 74.4533715,53.9048193 C74.2412274,53.6536964 74.0807017,53.3624165 73.9811561,53.0479671 C73.8635328,52.6725976 73.8009514,52.2818522 73.7954032,51.8881646 L79.0322942,51.8587739 Z M73.8535909,50.9544444 C73.9127036,50.4195256 74.1401981,49.917893 74.5026073,49.523343 C75.1164397,48.9929028 75.9684828,48.8445298 76.722691,49.1367422 C76.9410536,49.2299844 77.1360329,49.3713384 77.2933778,49.5504729 C77.4534028,49.7365277 77.5744515,49.9534084 77.6492178,50.1880252 C77.7273306,50.4359278 77.7680705,50.6942937 77.7700692,50.9544444 L73.8535909,50.9544444 Z" id="Shape" fill="#51575C"></path>
                    <path d="M85.4911264,53.7759524 C85.4911264,53.7759524 85.0278629,54.1535099 84.8891077,54.2281171 C84.7305913,54.3276201 84.5626595,54.410928 84.3877985,54.4768077 C84.1416117,54.5577883 83.8834424,54.5952645 83.6246447,54.5875881 C83.3239104,54.592184 83.0258801,54.5296538 82.7518296,54.4044614 C82.4938019,54.2827446 82.2682369,54.1006063 82.0938612,53.8731678 C81.8998304,53.6133828 81.7563038,53.3187977 81.6708815,53.0050115 C81.5645087,52.6163829 81.5132701,52.2144707 81.5186984,51.8112966 C81.5142667,51.4193281 81.5616837,51.0285178 81.6596916,50.6492332 C81.7402372,50.3332262 81.8808574,50.0360623 82.0737193,49.7742944 C82.2504146,49.5391783 82.4807557,49.3506982 82.7451156,49.2249143 C83.2561553,49.0112198 83.8230649,48.9754264 84.3564667,49.1231772 C84.5190139,49.1742966 84.6763812,49.2409139 84.8264441,49.3221297 C84.9562473,49.3944761 85.4665085,49.7313388 85.4665085,49.7313388 L86.1200009,48.9197031 L86.0864311,48.8857907 C85.7803162,48.5792815 85.4186371,48.33519 85.021149,48.1668488 C84.5766819,47.9869894 84.1011377,47.8985965 83.6224067,47.9068541 C83.1026861,47.8979686 82.5867875,47.9980442 82.1072891,48.2007611 C81.6788761,48.3854088 81.2966047,48.664225 80.9882953,49.0169185 C80.6797322,49.3807777 80.4468314,49.8036616 80.3034711,50.2603715 C80.1473516,50.7666102 80.0718111,51.2946844 80.0796724,51.8248615 C80.0711476,52.3863912 80.1574266,52.9452812 80.3348029,53.4775236 C80.4870021,53.9293658 80.7257871,54.3465099 81.0375311,54.7051509 C81.3304253,55.03446 81.6909192,55.2952444 82.0938612,55.4693093 C82.5093383,55.6470079 82.9563911,55.737023 83.4075599,55.7338257 C83.9370987,55.7363076 84.4626547,55.6413091 84.9584853,55.4534836 C85.4414691,55.2686893 85.8665388,54.9563933 86.1893785,54.5491541 L86.2520422,54.4700252 L85.4911264,53.7759524 Z" id="Path" fill="#51575C"></path>
                    <path d="M89.2957053,53.7623874 L89.2957053,52.5121519 L89.2957053,52.5121519 L89.2957053,53.678737 C89.2800394,53.7081277 89.2957053,53.7352575 89.2957053,53.7623874 Z" id="Path" fill="#51575C"></path>
                    <polygon id="Path" fill="#51575C" points="89.2800394 49.2384792 91.4038896 49.2384792 91.4038896 48.1713704 89.2800394 48.1713704 89.2800394 48.1623271 89.2800394 45.5895098 88.5661213 45.5895098 87.914867 45.5895098 87.914867 48.1623271 86.6951637 48.1691096 86.6951637 49.2362184 87.8656312 49.2384792 87.8656312 55.7338257 89.2867534 55.7338257 89.2867534 55.7089566"></polygon>
                    <polygon id="Path" fill="#128BCA" points="51.3013898 32.5219488 51.3013898 40.2833566 69.9393505 40.2833566 69.9393505 21.4552169 62.6770808 21.4552169 62.6770808 32.5219488"></polygon>
                    <polygon id="Path" fill="#89C040" points="37.3229192 21.4552169 30.0606495 21.4552169 30.0606495 40.2833566 48.6986102 40.2833566 48.6986102 32.5219488 37.3229192 32.5219488"></polygon>
                    <polygon id="Path" fill="#89C040" points="62.6770808 18.8258789 69.9393505 18.8258789 69.9393505 0 51.3013898 0 51.3013898 6.90907721 62.6770808 6.90907721"></polygon>
                    <polygon id="Path" fill="#128BCA" points="48.6986102 6.90907721 48.6986102 0 30.0606495 0 30.0606495 18.8258789 37.3229192 18.8258789 37.3229192 6.90907721"></polygon>
                    <path d="M59.3178614,18.8258789 L59.3178614,10.7276084 L51.3013898,10.7276084 L51.3013898,6.90907721 L48.6986102,6.90907721 L48.6986102,10.7276084 L40.6821386,10.7276084 L40.6821386,18.8258789 L37.3251572,18.8258789 L37.3251572,21.4552169 L40.6821386,21.4552169 L40.6821386,29.5534873 L48.6986102,29.5534873 L48.6986102,32.5219488 L51.3013898,32.5219488 L51.3013898,29.5557481 L59.3178614,29.5557481 L59.3178614,21.4552169 L62.6748428,21.4552169 L62.6748428,18.8258789 L59.3178614,18.8258789 Z M54.0071168,16.6374016 L54.0071168,24.2473341 L45.9906452,24.2473341 L45.9906452,16.1513245 L54.0071168,16.1513245 L54.0071168,16.6374016 Z" id="Shape" fill="#FFCA0D"></path>
                    <polygon id="Path" fill="#51575C" points="92.8384397 46.2293229 93.9081977 46.2293229 93.9081977 49.2588266 94.6780655 49.2588266 94.6780655 46.2293229 95.7433476 46.2293229 95.7433476 45.5691624 92.8384397 45.5691624"></polygon>
                    <polygon id="Path" fill="#51575C" points="96.0499519 45.5691624 96.8086297 45.5691624 98.0305709 47.9045932 99.2413222 45.5691624 100 45.5691624 100 49.2588266 99.3084618 49.2588266 99.3084618 46.8487886 98.2789875 48.8134444 97.7866303 48.8134444 96.7414901 46.8442669 96.7414901 49.2588266 96.0499519 49.2588266"></polygon>
                </g>
            </g>
        </g>
    </g>
</svg>